<?xml version="1.0" encoding="UTF-8" standalone="no"?>
<!-- Created with Inkscape (http://www.inkscape.org/) -->

<svg
   width="1200mm"
   height="220mm"
   viewBox="0 0 1200 220"
   version="1.1"
   id="svg296"
   inkscape:version="1.2.1 (9c6d41e410, 2022-07-14, custom)"
   sodipodi:docname="banner-bottom.svg"
   inkscape:export-filename="banner-bottom.png"
   inkscape:export-xdpi="25.4"
   inkscape:export-ydpi="25.4"
   xmlns:inkscape="http://www.inkscape.org/namespaces/inkscape"
   xmlns:sodipodi="http://sodipodi.sourceforge.net/DTD/sodipodi-0.dtd"
   xmlns:xlink="http://www.w3.org/1999/xlink"
   xmlns="http://www.w3.org/2000/svg"
   xmlns:svg="http://www.w3.org/2000/svg">
  <sodipodi:namedview
     id="namedview298"
     pagecolor="#ffffff"
     bordercolor="#666666"
     borderopacity="1.0"
     inkscape:showpageshadow="2"
     inkscape:pageopacity="0.0"
     inkscape:pagecheckerboard="0"
     inkscape:deskcolor="#d1d1d1"
     inkscape:document-units="mm"
     showgrid="false"
     inkscape:zoom="0.16173406"
     inkscape:cx="1644.6752"
     inkscape:cy="847.06956"
     inkscape:window-width="1884"
     inkscape:window-height="1003"
     inkscape:window-x="497"
     inkscape:window-y="212"
     inkscape:window-maximized="0"
     inkscape:current-layer="layer1" />
  <defs
     id="defs293">
    <pattern
       inkscape:collect="always"
       xlink:href="#pattern1555"
       id="pattern5246"
       patternTransform="matrix(0.26458333,0,0,0.26458333,-567.88625,-213.16036)" />
    <pattern
       inkscape:collect="always"
       xlink:href="#pattern3290"
       id="pattern3318"
       patternTransform="translate(4.9034203e-5,7.8248032e-5)" />
    <pattern
       patternUnits="userSpaceOnUse"
       width="162.79097"
       height="162.78967"
       patternTransform="translate(-814.01396,1887.5229)"
       id="pattern3290">
      <rect
         style="fill:url(#pattern3288);stroke:none;stroke-width:0.0815097"
         width="162.79097"
         height="162.78967"
         x="0"
         y="0"
         id="rect3286" />
    </pattern>
    <pattern
       inkscape:collect="always"
       xlink:href="#pattern3283"
       id="pattern3288"
       patternTransform="matrix(0.0815099,0,0,0.0815099,-1.1423474e-5,-1.6978346e-5)" />
    <pattern
       patternUnits="userSpaceOnUse"
       width="1997.1931"
       height="1997.1774"
       patternTransform="translate(-814.01396,1887.5229)"
       id="pattern3283">
      <rect
         style="fill:url(#pattern3281);stroke:none;stroke-width:6.51005"
         width="1997.1931"
         height="1997.1774"
         x="0"
         y="0"
         id="rect1317" />
    </pattern>
    <pattern
       inkscape:collect="always"
       xlink:href="#pattern1314"
       id="pattern3281"
       patternTransform="matrix(6.510048,0,0,6.510048,-4.921875e-5,2.4758858e-4)" />
    <pattern
       patternUnits="userSpaceOnUse"
       width="306.78622"
       height="306.7838"
       patternTransform="translate(-814.01398,1887.523)"
       id="pattern1314">
      <g
         id="use1312"
         transform="matrix(3.7795276,0,0,3.7795276,-140.07224,-1521.2986)"
         inkscape:tile-x0="17.633138"
         inkscape:tile-y0="66.195568">
        <path
           style="fill:#2d3e50;fill-opacity:1;stroke:none;stroke-width:0.264583px;stroke-linecap:butt;stroke-linejoin:miter;stroke-opacity:1"
           d="M 37.060936,483.68008 H 118.23083 V 402.5102 H 37.060936 v 81.16988"
           id="path1542" />
        <path
           id="path1544"
           style="color:#000000;fill:#4fb3d9;stroke-linecap:round"
           d="m 39.113375,431.88062 a 0.378326,0.378326 0 0 0 -0.375171,0.38085 l 0.0098,1.52962 a 0.378326,0.378326 0 0 0 0.222726,0.22066 c -0.651579,0.12579 -1.264185,0.42285 -1.838131,0.82992 a 0.378326,0.378326 0 0 0 -0.07183,-0.0703 v 1.0201 c 0.645843,-0.61753 1.425779,-0.99151 2.210718,-1.10588 0.930107,-0.13553 1.868193,0.0907 2.595707,0.69918 l 0.907955,0.75965 c 1.455027,1.21703 1.552691,3.52883 0.150378,5.20536 l -5.431193,6.49418 c -0.136536,0.16324 -0.281737,0.31289 -0.433565,0.4501 v 1.77612 l 0.503845,0.63304 a 0.378326,0.378326 0 0 0 0.531234,0.0605 0.378326,0.378326 0 0 0 0.06046,-0.53123 l -0.943611,-1.18546 c 0.296088,-0.22585 0.611174,-0.4196 0.861446,-0.71882 l 0.693498,-0.82837 a 0.378326,0.378326 0 0 0 0.02119,0.0822 l 1.154451,0.68575 a 0.378326,0.378326 0 0 0 0.517798,-0.13126 0.378326,0.378326 0 0 0 -0.131258,-0.51935 l -1.108976,-0.65836 2.456697,-2.93728 a 0.378326,0.378326 0 0 0 0.04496,0.0879 l 0.982369,0.82992 a 0.378326,0.378326 0 0 0 0.533301,-0.0465 0.378326,0.378326 0 0 0 -0.04496,-0.5333 l -0.984436,-0.82837 a 0.378326,0.378326 0 0 0 -0.130741,0.0119 l 1.42782,-1.70687 c 0.150316,-0.17971 0.210406,-0.3936 0.331762,-0.58601 a 0.378326,0.378326 0 0 0 0.01395,0.0233 l 0.964799,0.71676 a 0.378326,0.378326 0 0 0 0.529167,-0.078 0.378326,0.378326 0 0 0 -0.07803,-0.52916 l -0.964799,-0.71675 a 0.378326,0.378326 0 0 0 -0.144694,0.0212 c 0.346832,-0.7473 0.534881,-1.52302 0.482658,-2.29288 a 0.378326,0.378326 0 0 0 0.08372,0.006 l 1.420068,-0.48472 a 0.378326,0.378326 0 0 0 0.236162,-0.47853 0.378326,0.378326 0 0 0 -0.480075,-0.23616 l -1.418001,0.48266 a 0.378326,0.378326 0 0 0 -0.0078,0.0134 c -0.194166,-0.80887 -0.545026,-1.57236 -1.214913,-2.13268 l -0.177767,-0.14831 0.800468,-0.96118 a 0.378326,0.378326 0 0 0 -0.04858,-0.53331 0.378326,0.378326 0 0 0 -0.533301,0.0491 l -0.798917,0.95859 -0.150379,-0.12454 c -0.82582,-0.69074 -1.858827,-0.93062 -2.890263,-0.85007 a 0.378326,0.378326 0 0 0 0.04289,-0.16795 l -0.0098,-1.52911 a 0.378326,0.378326 0 0 0 -0.380855,-0.37672 z m 0.542602,5.46478 c -0.05535,0.001 -0.110937,0.005 -0.165881,0.0119 -0.439553,0.0524 -0.85884,0.27209 -1.152384,0.64493 -0.587095,0.74567 -0.458118,1.83623 0.287321,2.42362 0.664035,0.52325 1.561471,0.39615 2.174027,-0.14676 0.02276,-0.0202 0.05413,-0.0213 0.07596,-0.0429 a 0.378326,0.378326 0 0 0 0.1757,-0.0977 0.378326,0.378326 0 0 0 0.0021,-0.002 c 9.53e-4,-10e-4 0.0011,-0.003 0.0021,-0.004 a 0.378326,0.378326 0 0 0 0.0739,-0.26975 0.378326,0.378326 0 0 0 0,-5.1e-4 0.378326,0.378326 0 0 0 0,-5.2e-4 0.378326,0.378326 0 0 0 0,-5.2e-4 0.378326,0.378326 0 0 0 0,-5.1e-4 0.378326,0.378326 0 0 0 0,-5.2e-4 0.378326,0.378326 0 0 0 0,-5.2e-4 0.378326,0.378326 0 0 0 0,-5.1e-4 0.378326,0.378326 0 0 0 0,-5.2e-4 c 0.38442,-0.72293 0.297727,-1.62327 -0.366903,-2.14612 -0.326337,-0.25673 -0.71846,-0.3766 -1.105876,-0.36742 z m 0.01499,0.75137 c 0.217059,-0.005 0.437971,0.0637 0.623734,0.20981 0.424601,0.33403 0.496121,0.93849 0.162264,1.36322 -0.334535,0.4242 -0.938891,0.49664 -1.363224,0.16227 -0.424332,-0.33437 -0.496461,-0.93876 -0.162264,-1.36323 0.167097,-0.21223 0.400726,-0.33606 0.646472,-0.36535 0.03072,-0.004 0.06201,-0.006 0.09302,-0.007 z m -1.591118,3.59668 a 0.378326,0.378326 0 0 0 -0.347265,0.40411 l 0.0021,0.0274 a 0.378326,0.378326 0 0 0 0.406176,0.34778 0.378326,0.378326 0 0 0 0.347266,-0.40617 l -0.0016,-0.0258 a 0.378326,0.378326 0 0 0 -0.406694,-0.34727 z m -0.254248,1.50534 a 0.378326,0.378326 0 0 0 -0.144177,0.032 l -0.620634,0.27181 v 0.80719 a 0.378326,0.378326 0 0 0 0.08578,-0.0186 l 0.837675,-0.36742 a 0.378326,0.378326 0 0 0 0.195337,-0.49765 0.378326,0.378326 0 0 0 -0.208773,-0.20153 0.378326,0.378326 0 0 0 -0.145211,-0.0258 z" />
        <path
           id="path1546"
           style="color:#000000;fill:#4fb3d9;stroke-linecap:round;stroke-linejoin:round"
           d="m 84.93125,472.41044 c -0.12563,5.3e-4 -0.252885,0.0183 -0.376721,0.0465 -0.330228,0.0754 -0.665542,0.22818 -1.003557,0.416 -0.676027,0.37563 -1.35853,0.89793 -1.851566,1.26762 -0.695299,0.52134 -1.276127,1.24201 -1.822628,2.1115 -0.833364,1.3259 -1.204283,2.75616 -1.073836,3.93154 0.01841,0.16596 -0.06714,0.41212 -0.252181,0.72089 -0.185038,0.30877 -0.453434,0.66608 -0.701249,1.06815 -0.08585,0.13928 -0.139822,0.24724 -0.216525,0.39636 -0.237709,-0.44999 -0.516132,-0.87563 -0.74414,-1.22267 -0.271444,-0.41315 -0.421281,-0.74688 -0.398425,-0.95291 0.130458,-1.1754 -0.243067,-2.60565 -1.076421,-3.93154 -0.546501,-0.8695 -1.126828,-1.59015 -1.822111,-2.1115 -0.49304,-0.36969 -1.175538,-0.89199 -1.851566,-1.26763 -0.338014,-0.18782 -0.673847,-0.34064 -1.004073,-0.41599 -0.330227,-0.0754 -0.680595,-0.0743 -0.970484,0.12092 -0.412985,0.27809 -0.635574,0.75375 -0.74414,1.29708 -0.108565,0.54332 -0.10803,1.17511 -0.02532,1.84175 0.165416,1.3333 0.656103,2.80627 1.355473,3.92017 0.719168,1.14545 1.829037,1.74439 2.914034,1.93528 1.084997,0.19089 2.152173,-0.002 2.871143,-0.4842 a 0.32918349,0.32918349 0 0 0 0.03669,-0.0429 c 0.07982,0.14575 0.07017,0.30937 0.164331,0.45269 0.288158,0.43859 0.624148,0.89071 0.837675,1.36374 a 0.32918349,0.32918349 0 0 0 0.107487,0.10129 c -0.1417,0.20346 -0.293548,0.44105 -0.449068,0.70745 h 0.72192 c 0.190489,-0.32344 0.365189,-0.58439 0.504362,-0.75603 a 0.32918349,0.32918349 0 0 0 0.0098,-0.0176 0.32918349,0.32918349 0 0 0 0.0098,-0.002 c -0.0012,0.002 0.01517,-0.0224 0.03152,-0.047 0.01635,-0.0246 0.03117,-0.0445 0.05633,-0.0935 0.120431,-0.23389 0.146442,-0.28982 0.242362,-0.44545 0.227524,-0.36915 0.493271,-0.72333 0.704867,-1.07642 0.02855,-0.0476 0.02023,-0.1037 0.04703,-0.15193 0.718903,0.48036 1.780805,0.67262 2.863391,0.48215 1.084998,-0.1909 2.196934,-0.78985 2.916101,-1.93529 0.699366,-1.1139 1.187988,-2.58688 1.353406,-3.92017 0.08271,-0.66665 0.08532,-1.29843 -0.02325,-1.84175 -0.108564,-0.54332 -0.331156,-1.01899 -0.744141,-1.29708 -0.181182,-0.122 -0.386963,-0.16831 -0.596346,-0.16743 z m -0.0057,0.65939 c 0.105609,-0.001 0.180729,0.0204 0.232544,0.0553 0.209083,0.14079 0.378062,0.43572 0.466638,0.87901 0.08858,0.44328 0.09246,1.01425 0.01602,1.63039 -0.152884,1.23227 -0.625522,2.64543 -1.257804,3.65249 -0.612478,0.97552 -1.538527,1.4726 -2.47065,1.6366 -0.932122,0.164 -1.862759,-0.0291 -2.389002,-0.38241 a 0.32918349,0.32918349 0 0 0 -0.208772,0.0408 c 0.04441,-0.15818 0.161649,-0.2993 0.142627,-0.47078 -0.108292,-0.97576 0.211291,-2.29004 0.976684,-3.50779 0.521538,-0.82979 1.057529,-1.48367 1.659847,-1.93529 0.496442,-0.37225 1.164145,-0.87842 1.777153,-1.21904 0.306503,-0.17031 0.599324,-0.2966 0.83044,-0.34934 0.08667,-0.0198 0.16091,-0.0291 0.224276,-0.03 z m -14.559835,0.01 c 0.06337,8.6e-4 0.137607,0.0102 0.224276,0.03 0.231113,0.0527 0.523419,0.17954 0.829923,0.34985 0.613007,0.34063 1.280705,0.84629 1.777153,1.21853 0.602314,0.45164 1.138828,1.10551 1.660363,1.93529 0.765385,1.21775 1.086536,2.53203 0.978235,3.50779 -0.0159,0.14336 0.112204,0.25571 0.141077,0.38913 a 0.32918349,0.32918349 0 0 0 -0.207223,0.0408 c -0.526248,0.35333 -1.456363,0.54692 -2.388484,0.38292 -0.932121,-0.16399 -1.860238,-0.66159 -2.472718,-1.63711 -0.632286,-1.00705 -1.104921,-2.41969 -1.257804,-3.65197 -0.07644,-0.61614 -0.07308,-1.18762 0.0155,-1.63091 0.08858,-0.44329 0.257555,-0.73823 0.466638,-0.87902 0.05181,-0.0349 0.127451,-0.0567 0.233061,-0.0553 z m 14.060123,2.77399 a 0.32918349,0.32918349 0 0 0 -0.373103,0.27957 c 0,0 -0.196058,1.20197 -0.628903,1.85312 -0.471879,0.70987 -1.2361,1.43764 -1.2361,1.43764 a 0.32918349,0.32918349 0 0 0 -0.01395,0.46663 0.32918349,0.32918349 0 0 0 0.466638,0.0119 c 0,0 0.79574,-0.74376 1.332218,-1.55081 0.575495,-0.86574 0.732255,-2.12493 0.732255,-2.12493 a 0.32918349,0.32918349 0 0 0 -0.279053,-0.37311 z m -13.627075,0.21084 a 0.32918349,0.32918349 0 0 0 -0.279052,0.37156 c 0,0 0.156751,1.25917 0.732255,2.12493 0.536478,0.80705 1.333768,1.55236 1.333768,1.55236 a 0.32918349,0.32918349 0 0 0 0.465088,-0.0134 0.32918349,0.32918349 0 0 0 -0.01395,-0.46508 c 0,0 -0.764221,-0.72726 -1.236101,-1.43713 -0.432853,-0.65116 -0.628902,-1.85363 -0.628902,-1.85363 a 0.32918349,0.32918349 0 0 0 -0.373104,-0.27957 z" />
        <path
           id="path1548"
           style="color:#000000;fill:#4fb3d9;stroke-linecap:round"
           d="m 116.81509,434.27272 a 0.378326,0.378326 0 0 0 -0.33848,0.24856 0.378326,0.378326 0 0 0 0.22686,0.48473 l 0.97824,0.35346 c -0.11847,0.11653 -0.26568,0.18237 -0.37466,0.31265 l -1.50017,1.79265 -0.71468,-1.20871 a 0.378326,0.378326 0 0 0 -0.5178,-0.13488 0.378326,0.378326 0 0 0 -0.13487,0.51935 l 0.84387,1.42369 a 0.378326,0.378326 0 0 0 0.014,0.0103 l -1.77354,2.11925 -1.27176,-1.01802 a 0.378326,0.378326 0 0 0 -0.53123,0.0589 0.378326,0.378326 0 0 0 0.0589,0.5333 l 1.25936,1.00769 -1.16376,1.39061 c -0.30016,0.35884 -0.47939,0.76503 -0.66404,1.16789 l -0.65267,-1.10536 a 0.378326,0.378326 0 0 0 -0.51935,-0.13281 0.378326,0.378326 0 0 0 -0.13281,0.51728 l 0.84181,1.42576 a 0.378326,0.378326 0 0 0 0.16226,0.12144 c -0.0814,0.3216 -0.13601,0.64385 -0.14883,0.96686 a 0.378326,0.378326 0 0 0 -0.19482,-0.0961 l -1.42006,0.48266 a 0.378326,0.378326 0 0 0 -0.23617,0.48059 0.378326,0.378326 0 0 0 0.48008,0.23616 l 1.38699,-0.47077 c 0.10689,1.02209 0.52299,1.98943 1.34359,2.67581 l 0.22634,0.18965 a 0.378326,0.378326 0 0 0 -0.15399,0.10749 c -0.17856,0.27993 -0.34902,0.48606 -0.49041,0.59944 -0.1414,0.11338 -0.22912,0.13728 -0.33176,0.12713 -0.16573,-0.0164 -0.32843,-0.13936 -0.64854,-0.21911 -0.16006,-0.0399 -0.36942,-0.0479 -0.57051,0.0238 -0.20108,0.0717 -0.38517,0.20633 -0.57774,0.40411 l -0.0119,0.01 -0.008,0.0119 c -0.3686,0.4416 -0.46137,0.92354 -0.36483,1.30483 0.0966,0.38129 0.32489,0.64949 0.4687,0.84181 0.038,0.0507 0.15363,0.28584 0.13074,0.59945 -0.0229,0.31361 -0.16405,0.73313 -0.64854,1.23248 a 0.378326,0.378326 0 0 0 0.0103,0.53485 0.378326,0.378326 0 0 0 0.53485,-0.01 c 0.58466,-0.60258 0.82282,-1.20231 0.85938,-1.70326 0.0366,-0.50094 -0.10864,-0.87682 -0.28112,-1.10743 -0.15493,-0.20718 -0.29678,-0.4033 -0.34003,-0.57412 -0.0426,-0.16813 -0.0368,-0.32758 0.20722,-0.62477 0.12888,-0.12802 0.22672,-0.18911 0.2775,-0.20722 0.0537,-0.0191 0.0714,-0.0188 0.13075,-0.004 0.11872,0.0296 0.36571,0.20158 0.75757,0.2403 0.32396,0.032 0.63512,-0.0937 0.88109,-0.29094 0.24598,-0.19723 0.45121,-0.46308 0.65422,-0.78135 a 0.378326,0.378326 0 0 0 0.0274,-0.0879 l 0.17001,0.14263 c 0.52921,0.44266 1.149,0.67077 1.79266,0.79117 l 0.33796,1.53117 a 0.378326,0.378326 0 0 0 0.45114,0.28887 0.378326,0.378326 0 0 0 0.28732,-0.45113 l -0.29094,-1.32602 c 0.74527,-0.004 1.49234,-0.1332 2.18333,-0.5116 l 0.43977,0.55242 v -1.77663 c -1.40759,1.2725 -3.40402,1.42011 -4.71755,0.32142 l -0.90795,-0.75964 c -1.45503,-1.21704 -1.55271,-3.52831 -0.15038,-5.20485 l 5.43171,-6.49211 c 0.10944,-0.13083 0.22472,-0.2527 0.34417,-0.3669 v -1.0201 a 0.378326,0.378326 0 0 0 -0.092,-0.0506 l -1.1777,-0.42581 a 0.378326,0.378326 0 0 0 -0.14625,-0.0222 z m -1.20561,6.905 a 0.378326,0.378326 0 0 0 -0.34778,0.40618 l 0.002,0.0253 a 0.378326,0.378326 0 0 0 0.40617,0.34985 0.378326,0.378326 0 0 0 0.34778,-0.40618 l -0.002,-0.0274 a 0.378326,0.378326 0 0 0 -0.40618,-0.34778 z m 2.62155,2.32492 -0.21756,0.0951 a 0.378326,0.378326 0 0 0 -0.19534,0.49816 0.378326,0.378326 0 0 0 0.4129,0.21394 z m -2.85926,0.54002 a 0.378326,0.378326 0 0 0 -0.33486,0.25218 l -0.45114,1.30483 a 0.378326,0.378326 0 0 0 0.23461,0.4806 0.378326,0.378326 0 0 0 0.48059,-0.23255 l 0.45114,-1.30483 a 0.378326,0.378326 0 0 0 -0.23461,-0.48059 0.378326,0.378326 0 0 0 -0.14573,-0.0196 z m 1.72186,1.1095 a 0.378326,0.378326 0 0 0 -0.34933,0.40617 l 0.002,0.0279 a 0.378326,0.378326 0 0 0 0.40618,0.34726 0.378326,0.378326 0 0 0 0.34933,-0.40617 l -0.002,-0.0253 a 0.378326,0.378326 0 0 0 -0.40617,-0.34985 z m -3.44114,0.28163 a 0.378326,0.378326 0 0 0 -0.34778,0.40618 l 0.002,0.0253 a 0.378326,0.378326 0 0 0 0.40618,0.34778 0.378326,0.378326 0 0 0 0.34778,-0.40617 l -0.002,-0.0258 a 0.378326,0.378326 0 0 0 -0.40618,-0.34727 z" />
        <path
           id="path1550"
           style="color:#000000;fill:#4fb3d9;stroke-linecap:round;stroke-linejoin:round"
           d="m 76.83407,402.51031 c -0.688865,1.17998 -1.450937,2.9308 -1.732711,4.84519 -0.380038,2.58205 -0.144177,6.11539 -0.144177,6.11539 a 0.32918349,0.32918349 0 0 0 0.3514,0.3085 0.32918349,0.32918349 0 0 0 0.306441,-0.34984 c 0,0 -0.22243,-3.52274 0.139009,-5.97845 0.278828,-1.89437 1.139151,-3.81538 1.801958,-4.94079 z" />
      </g>
    </pattern>
    <pattern
       patternUnits="userSpaceOnUse"
       width="162.79097"
       height="162.78967"
       patternTransform="translate(-404.92601,2323.2237)"
       id="pattern1555">
      <rect
         style="fill:url(#pattern3318);stroke:none;stroke-width:0.999999"
         width="162.79097"
         height="162.78967"
         x="0"
         y="0"
         id="rect3293" />
    </pattern>
    <pattern
       inkscape:collect="always"
       xlink:href="#pattern3305"
       id="pattern12940"
       patternTransform="matrix(0.98021536,0,0,0.98021536,-1287.6022,2800.0059)" />
    <pattern
       patternUnits="userSpaceOnUse"
       width="192.27021"
       height="192.26867"
       patternTransform="translate(-1152.1967,2631.6818)"
       id="pattern3305">
      <rect
         style="fill:url(#pattern3303);stroke:none;stroke-width:1.18108"
         width="192.27022"
         height="192.26868"
         x="0"
         y="0"
         id="rect3301" />
    </pattern>
    <pattern
       inkscape:collect="always"
       xlink:href="#pattern3290-3"
       id="pattern3303"
       patternTransform="matrix(1.1810865,0,0,1.1810865,-7.2637795e-5,2.5319882e-5)" />
    <pattern
       patternUnits="userSpaceOnUse"
       width="162.79097"
       height="162.78967"
       patternTransform="translate(-814.01396,1887.5229)"
       id="pattern3290-3">
      <rect
         style="fill:url(#pattern3288-7);stroke:none;stroke-width:0.0815097"
         width="162.79097"
         height="162.78967"
         x="0"
         y="0"
         id="rect3286-6" />
    </pattern>
    <pattern
       inkscape:collect="always"
       xlink:href="#pattern3283-5"
       id="pattern3288-7"
       patternTransform="matrix(0.0815099,0,0,0.0815099,-1.1423474e-5,-1.6978346e-5)" />
    <pattern
       patternUnits="userSpaceOnUse"
       width="1997.1931"
       height="1997.1774"
       patternTransform="translate(-814.01396,1887.5229)"
       id="pattern3283-5">
      <rect
         style="fill:url(#pattern3281-5);stroke:none;stroke-width:6.51005"
         width="1997.1931"
         height="1997.1774"
         x="0"
         y="0"
         id="rect1317-3" />
    </pattern>
    <pattern
       inkscape:collect="always"
       xlink:href="#pattern1314-6"
       id="pattern3281-5"
       patternTransform="matrix(6.510048,0,0,6.510048,-4.921875e-5,2.4758858e-4)" />
    <pattern
       patternUnits="userSpaceOnUse"
       width="306.78622"
       height="306.7838"
       patternTransform="translate(-814.01398,1887.523)"
       id="pattern1314-6">
      <g
         id="use1312-2"
         transform="matrix(3.7795276,0,0,3.7795276,-140.07224,-1521.2986)"
         inkscape:tile-x0="17.633138"
         inkscape:tile-y0="66.195568">
        <path
           style="fill:#2d3e50;fill-opacity:1;stroke:none;stroke-width:0.264583px;stroke-linecap:butt;stroke-linejoin:miter;stroke-opacity:1"
           d="M 37.060936,483.68008 H 118.23083 V 402.5102 H 37.060936 v 81.16988"
           id="path3781" />
        <path
           id="path3783"
           style="color:#000000;fill:#4fb3d9;stroke-linecap:round"
           d="m 39.113375,431.88062 a 0.378326,0.378326 0 0 0 -0.375171,0.38085 l 0.0098,1.52962 a 0.378326,0.378326 0 0 0 0.222726,0.22066 c -0.651579,0.12579 -1.264185,0.42285 -1.838131,0.82992 a 0.378326,0.378326 0 0 0 -0.07183,-0.0703 v 1.0201 c 0.645843,-0.61753 1.425779,-0.99151 2.210718,-1.10588 0.930107,-0.13553 1.868193,0.0907 2.595707,0.69918 l 0.907955,0.75965 c 1.455027,1.21703 1.552691,3.52883 0.150378,5.20536 l -5.431193,6.49418 c -0.136536,0.16324 -0.281737,0.31289 -0.433565,0.4501 v 1.77612 l 0.503845,0.63304 a 0.378326,0.378326 0 0 0 0.531234,0.0605 0.378326,0.378326 0 0 0 0.06046,-0.53123 l -0.943611,-1.18546 c 0.296088,-0.22585 0.611174,-0.4196 0.861446,-0.71882 l 0.693498,-0.82837 a 0.378326,0.378326 0 0 0 0.02119,0.0822 l 1.154451,0.68575 a 0.378326,0.378326 0 0 0 0.517798,-0.13126 0.378326,0.378326 0 0 0 -0.131258,-0.51935 l -1.108976,-0.65836 2.456697,-2.93728 a 0.378326,0.378326 0 0 0 0.04496,0.0879 l 0.982369,0.82992 a 0.378326,0.378326 0 0 0 0.533301,-0.0465 0.378326,0.378326 0 0 0 -0.04496,-0.5333 l -0.984436,-0.82837 a 0.378326,0.378326 0 0 0 -0.130741,0.0119 l 1.42782,-1.70687 c 0.150316,-0.17971 0.210406,-0.3936 0.331762,-0.58601 a 0.378326,0.378326 0 0 0 0.01395,0.0233 l 0.964799,0.71676 a 0.378326,0.378326 0 0 0 0.529167,-0.078 0.378326,0.378326 0 0 0 -0.07803,-0.52916 l -0.964799,-0.71675 a 0.378326,0.378326 0 0 0 -0.144694,0.0212 c 0.346832,-0.7473 0.534881,-1.52302 0.482658,-2.29288 a 0.378326,0.378326 0 0 0 0.08372,0.006 l 1.420068,-0.48472 a 0.378326,0.378326 0 0 0 0.236162,-0.47853 0.378326,0.378326 0 0 0 -0.480075,-0.23616 l -1.418001,0.48266 a 0.378326,0.378326 0 0 0 -0.0078,0.0134 c -0.194166,-0.80887 -0.545026,-1.57236 -1.214913,-2.13268 l -0.177767,-0.14831 0.800468,-0.96118 a 0.378326,0.378326 0 0 0 -0.04858,-0.53331 0.378326,0.378326 0 0 0 -0.533301,0.0491 l -0.798917,0.95859 -0.150379,-0.12454 c -0.82582,-0.69074 -1.858827,-0.93062 -2.890263,-0.85007 a 0.378326,0.378326 0 0 0 0.04289,-0.16795 l -0.0098,-1.52911 a 0.378326,0.378326 0 0 0 -0.380855,-0.37672 z m 0.542602,5.46478 c -0.05535,0.001 -0.110937,0.005 -0.165881,0.0119 -0.439553,0.0524 -0.85884,0.27209 -1.152384,0.64493 -0.587095,0.74567 -0.458118,1.83623 0.287321,2.42362 0.664035,0.52325 1.561471,0.39615 2.174027,-0.14676 0.02276,-0.0202 0.05413,-0.0213 0.07596,-0.0429 a 0.378326,0.378326 0 0 0 0.1757,-0.0977 0.378326,0.378326 0 0 0 0.0021,-0.002 c 9.53e-4,-10e-4 0.0011,-0.003 0.0021,-0.004 a 0.378326,0.378326 0 0 0 0.0739,-0.26975 0.378326,0.378326 0 0 0 0,-5.1e-4 0.378326,0.378326 0 0 0 0,-5.2e-4 0.378326,0.378326 0 0 0 0,-5.2e-4 0.378326,0.378326 0 0 0 0,-5.1e-4 0.378326,0.378326 0 0 0 0,-5.2e-4 0.378326,0.378326 0 0 0 0,-5.2e-4 0.378326,0.378326 0 0 0 0,-5.1e-4 0.378326,0.378326 0 0 0 0,-5.2e-4 c 0.38442,-0.72293 0.297727,-1.62327 -0.366903,-2.14612 -0.326337,-0.25673 -0.71846,-0.3766 -1.105876,-0.36742 z m 0.01499,0.75137 c 0.217059,-0.005 0.437971,0.0637 0.623734,0.20981 0.424601,0.33403 0.496121,0.93849 0.162264,1.36322 -0.334535,0.4242 -0.938891,0.49664 -1.363224,0.16227 -0.424332,-0.33437 -0.496461,-0.93876 -0.162264,-1.36323 0.167097,-0.21223 0.400726,-0.33606 0.646472,-0.36535 0.03072,-0.004 0.06201,-0.006 0.09302,-0.007 z m -1.591118,3.59668 a 0.378326,0.378326 0 0 0 -0.347265,0.40411 l 0.0021,0.0274 a 0.378326,0.378326 0 0 0 0.406176,0.34778 0.378326,0.378326 0 0 0 0.347266,-0.40617 l -0.0016,-0.0258 a 0.378326,0.378326 0 0 0 -0.406694,-0.34727 z m -0.254248,1.50534 a 0.378326,0.378326 0 0 0 -0.144177,0.032 l -0.620634,0.27181 v 0.80719 a 0.378326,0.378326 0 0 0 0.08578,-0.0186 l 0.837675,-0.36742 a 0.378326,0.378326 0 0 0 0.195337,-0.49765 0.378326,0.378326 0 0 0 -0.208773,-0.20153 0.378326,0.378326 0 0 0 -0.145211,-0.0258 z" />
        <path
           id="path3785"
           style="color:#000000;fill:#4fb3d9;stroke-linecap:round;stroke-linejoin:round"
           d="m 84.93125,472.41044 c -0.12563,5.3e-4 -0.252885,0.0183 -0.376721,0.0465 -0.330228,0.0754 -0.665542,0.22818 -1.003557,0.416 -0.676027,0.37563 -1.35853,0.89793 -1.851566,1.26762 -0.695299,0.52134 -1.276127,1.24201 -1.822628,2.1115 -0.833364,1.3259 -1.204283,2.75616 -1.073836,3.93154 0.01841,0.16596 -0.06714,0.41212 -0.252181,0.72089 -0.185038,0.30877 -0.453434,0.66608 -0.701249,1.06815 -0.08585,0.13928 -0.139822,0.24724 -0.216525,0.39636 -0.237709,-0.44999 -0.516132,-0.87563 -0.74414,-1.22267 -0.271444,-0.41315 -0.421281,-0.74688 -0.398425,-0.95291 0.130458,-1.1754 -0.243067,-2.60565 -1.076421,-3.93154 -0.546501,-0.8695 -1.126828,-1.59015 -1.822111,-2.1115 -0.49304,-0.36969 -1.175538,-0.89199 -1.851566,-1.26763 -0.338014,-0.18782 -0.673847,-0.34064 -1.004073,-0.41599 -0.330227,-0.0754 -0.680595,-0.0743 -0.970484,0.12092 -0.412985,0.27809 -0.635574,0.75375 -0.74414,1.29708 -0.108565,0.54332 -0.10803,1.17511 -0.02532,1.84175 0.165416,1.3333 0.656103,2.80627 1.355473,3.92017 0.719168,1.14545 1.829037,1.74439 2.914034,1.93528 1.084997,0.19089 2.152173,-0.002 2.871143,-0.4842 a 0.32918349,0.32918349 0 0 0 0.03669,-0.0429 c 0.07982,0.14575 0.07017,0.30937 0.164331,0.45269 0.288158,0.43859 0.624148,0.89071 0.837675,1.36374 a 0.32918349,0.32918349 0 0 0 0.107487,0.10129 c -0.1417,0.20346 -0.293548,0.44105 -0.449068,0.70745 h 0.72192 c 0.190489,-0.32344 0.365189,-0.58439 0.504362,-0.75603 a 0.32918349,0.32918349 0 0 0 0.0098,-0.0176 0.32918349,0.32918349 0 0 0 0.0098,-0.002 c -0.0012,0.002 0.01517,-0.0224 0.03152,-0.047 0.01635,-0.0246 0.03117,-0.0445 0.05633,-0.0935 0.120431,-0.23389 0.146442,-0.28982 0.242362,-0.44545 0.227524,-0.36915 0.493271,-0.72333 0.704867,-1.07642 0.02855,-0.0476 0.02023,-0.1037 0.04703,-0.15193 0.718903,0.48036 1.780805,0.67262 2.863391,0.48215 1.084998,-0.1909 2.196934,-0.78985 2.916101,-1.93529 0.699366,-1.1139 1.187988,-2.58688 1.353406,-3.92017 0.08271,-0.66665 0.08532,-1.29843 -0.02325,-1.84175 -0.108564,-0.54332 -0.331156,-1.01899 -0.744141,-1.29708 -0.181182,-0.122 -0.386963,-0.16831 -0.596346,-0.16743 z m -0.0057,0.65939 c 0.105609,-0.001 0.180729,0.0204 0.232544,0.0553 0.209083,0.14079 0.378062,0.43572 0.466638,0.87901 0.08858,0.44328 0.09246,1.01425 0.01602,1.63039 -0.152884,1.23227 -0.625522,2.64543 -1.257804,3.65249 -0.612478,0.97552 -1.538527,1.4726 -2.47065,1.6366 -0.932122,0.164 -1.862759,-0.0291 -2.389002,-0.38241 a 0.32918349,0.32918349 0 0 0 -0.208772,0.0408 c 0.04441,-0.15818 0.161649,-0.2993 0.142627,-0.47078 -0.108292,-0.97576 0.211291,-2.29004 0.976684,-3.50779 0.521538,-0.82979 1.057529,-1.48367 1.659847,-1.93529 0.496442,-0.37225 1.164145,-0.87842 1.777153,-1.21904 0.306503,-0.17031 0.599324,-0.2966 0.83044,-0.34934 0.08667,-0.0198 0.16091,-0.0291 0.224276,-0.03 z m -14.559835,0.01 c 0.06337,8.6e-4 0.137607,0.0102 0.224276,0.03 0.231113,0.0527 0.523419,0.17954 0.829923,0.34985 0.613007,0.34063 1.280705,0.84629 1.777153,1.21853 0.602314,0.45164 1.138828,1.10551 1.660363,1.93529 0.765385,1.21775 1.086536,2.53203 0.978235,3.50779 -0.0159,0.14336 0.112204,0.25571 0.141077,0.38913 a 0.32918349,0.32918349 0 0 0 -0.207223,0.0408 c -0.526248,0.35333 -1.456363,0.54692 -2.388484,0.38292 -0.932121,-0.16399 -1.860238,-0.66159 -2.472718,-1.63711 -0.632286,-1.00705 -1.104921,-2.41969 -1.257804,-3.65197 -0.07644,-0.61614 -0.07308,-1.18762 0.0155,-1.63091 0.08858,-0.44329 0.257555,-0.73823 0.466638,-0.87902 0.05181,-0.0349 0.127451,-0.0567 0.233061,-0.0553 z m 14.060123,2.77399 a 0.32918349,0.32918349 0 0 0 -0.373103,0.27957 c 0,0 -0.196058,1.20197 -0.628903,1.85312 -0.471879,0.70987 -1.2361,1.43764 -1.2361,1.43764 a 0.32918349,0.32918349 0 0 0 -0.01395,0.46663 0.32918349,0.32918349 0 0 0 0.466638,0.0119 c 0,0 0.79574,-0.74376 1.332218,-1.55081 0.575495,-0.86574 0.732255,-2.12493 0.732255,-2.12493 a 0.32918349,0.32918349 0 0 0 -0.279053,-0.37311 z m -13.627075,0.21084 a 0.32918349,0.32918349 0 0 0 -0.279052,0.37156 c 0,0 0.156751,1.25917 0.732255,2.12493 0.536478,0.80705 1.333768,1.55236 1.333768,1.55236 a 0.32918349,0.32918349 0 0 0 0.465088,-0.0134 0.32918349,0.32918349 0 0 0 -0.01395,-0.46508 c 0,0 -0.764221,-0.72726 -1.236101,-1.43713 -0.432853,-0.65116 -0.628902,-1.85363 -0.628902,-1.85363 a 0.32918349,0.32918349 0 0 0 -0.373104,-0.27957 z" />
        <path
           id="path3787"
           style="color:#000000;fill:#4fb3d9;stroke-linecap:round"
           d="m 116.81509,434.27272 a 0.378326,0.378326 0 0 0 -0.33848,0.24856 0.378326,0.378326 0 0 0 0.22686,0.48473 l 0.97824,0.35346 c -0.11847,0.11653 -0.26568,0.18237 -0.37466,0.31265 l -1.50017,1.79265 -0.71468,-1.20871 a 0.378326,0.378326 0 0 0 -0.5178,-0.13488 0.378326,0.378326 0 0 0 -0.13487,0.51935 l 0.84387,1.42369 a 0.378326,0.378326 0 0 0 0.014,0.0103 l -1.77354,2.11925 -1.27176,-1.01802 a 0.378326,0.378326 0 0 0 -0.53123,0.0589 0.378326,0.378326 0 0 0 0.0589,0.5333 l 1.25936,1.00769 -1.16376,1.39061 c -0.30016,0.35884 -0.47939,0.76503 -0.66404,1.16789 l -0.65267,-1.10536 a 0.378326,0.378326 0 0 0 -0.51935,-0.13281 0.378326,0.378326 0 0 0 -0.13281,0.51728 l 0.84181,1.42576 a 0.378326,0.378326 0 0 0 0.16226,0.12144 c -0.0814,0.3216 -0.13601,0.64385 -0.14883,0.96686 a 0.378326,0.378326 0 0 0 -0.19482,-0.0961 l -1.42006,0.48266 a 0.378326,0.378326 0 0 0 -0.23617,0.48059 0.378326,0.378326 0 0 0 0.48008,0.23616 l 1.38699,-0.47077 c 0.10689,1.02209 0.52299,1.98943 1.34359,2.67581 l 0.22634,0.18965 a 0.378326,0.378326 0 0 0 -0.15399,0.10749 c -0.17856,0.27993 -0.34902,0.48606 -0.49041,0.59944 -0.1414,0.11338 -0.22912,0.13728 -0.33176,0.12713 -0.16573,-0.0164 -0.32843,-0.13936 -0.64854,-0.21911 -0.16006,-0.0399 -0.36942,-0.0479 -0.57051,0.0238 -0.20108,0.0717 -0.38517,0.20633 -0.57774,0.40411 l -0.0119,0.01 -0.008,0.0119 c -0.3686,0.4416 -0.46137,0.92354 -0.36483,1.30483 0.0966,0.38129 0.32489,0.64949 0.4687,0.84181 0.038,0.0507 0.15363,0.28584 0.13074,0.59945 -0.0229,0.31361 -0.16405,0.73313 -0.64854,1.23248 a 0.378326,0.378326 0 0 0 0.0103,0.53485 0.378326,0.378326 0 0 0 0.53485,-0.01 c 0.58466,-0.60258 0.82282,-1.20231 0.85938,-1.70326 0.0366,-0.50094 -0.10864,-0.87682 -0.28112,-1.10743 -0.15493,-0.20718 -0.29678,-0.4033 -0.34003,-0.57412 -0.0426,-0.16813 -0.0368,-0.32758 0.20722,-0.62477 0.12888,-0.12802 0.22672,-0.18911 0.2775,-0.20722 0.0537,-0.0191 0.0714,-0.0188 0.13075,-0.004 0.11872,0.0296 0.36571,0.20158 0.75757,0.2403 0.32396,0.032 0.63512,-0.0937 0.88109,-0.29094 0.24598,-0.19723 0.45121,-0.46308 0.65422,-0.78135 a 0.378326,0.378326 0 0 0 0.0274,-0.0879 l 0.17001,0.14263 c 0.52921,0.44266 1.149,0.67077 1.79266,0.79117 l 0.33796,1.53117 a 0.378326,0.378326 0 0 0 0.45114,0.28887 0.378326,0.378326 0 0 0 0.28732,-0.45113 l -0.29094,-1.32602 c 0.74527,-0.004 1.49234,-0.1332 2.18333,-0.5116 l 0.43977,0.55242 v -1.77663 c -1.40759,1.2725 -3.40402,1.42011 -4.71755,0.32142 l -0.90795,-0.75964 c -1.45503,-1.21704 -1.55271,-3.52831 -0.15038,-5.20485 l 5.43171,-6.49211 c 0.10944,-0.13083 0.22472,-0.2527 0.34417,-0.3669 v -1.0201 a 0.378326,0.378326 0 0 0 -0.092,-0.0506 l -1.1777,-0.42581 a 0.378326,0.378326 0 0 0 -0.14625,-0.0222 z m -1.20561,6.905 a 0.378326,0.378326 0 0 0 -0.34778,0.40618 l 0.002,0.0253 a 0.378326,0.378326 0 0 0 0.40617,0.34985 0.378326,0.378326 0 0 0 0.34778,-0.40618 l -0.002,-0.0274 a 0.378326,0.378326 0 0 0 -0.40618,-0.34778 z m 2.62155,2.32492 -0.21756,0.0951 a 0.378326,0.378326 0 0 0 -0.19534,0.49816 0.378326,0.378326 0 0 0 0.4129,0.21394 z m -2.85926,0.54002 a 0.378326,0.378326 0 0 0 -0.33486,0.25218 l -0.45114,1.30483 a 0.378326,0.378326 0 0 0 0.23461,0.4806 0.378326,0.378326 0 0 0 0.48059,-0.23255 l 0.45114,-1.30483 a 0.378326,0.378326 0 0 0 -0.23461,-0.48059 0.378326,0.378326 0 0 0 -0.14573,-0.0196 z m 1.72186,1.1095 a 0.378326,0.378326 0 0 0 -0.34933,0.40617 l 0.002,0.0279 a 0.378326,0.378326 0 0 0 0.40618,0.34726 0.378326,0.378326 0 0 0 0.34933,-0.40617 l -0.002,-0.0253 a 0.378326,0.378326 0 0 0 -0.40617,-0.34985 z m -3.44114,0.28163 a 0.378326,0.378326 0 0 0 -0.34778,0.40618 l 0.002,0.0253 a 0.378326,0.378326 0 0 0 0.40618,0.34778 0.378326,0.378326 0 0 0 0.34778,-0.40617 l -0.002,-0.0258 a 0.378326,0.378326 0 0 0 -0.40618,-0.34727 z" />
        <path
           id="path3789"
           style="color:#000000;fill:#4fb3d9;stroke-linecap:round;stroke-linejoin:round"
           d="m 76.83407,402.51031 c -0.688865,1.17998 -1.450937,2.9308 -1.732711,4.84519 -0.380038,2.58205 -0.144177,6.11539 -0.144177,6.11539 a 0.32918349,0.32918349 0 0 0 0.3514,0.3085 0.32918349,0.32918349 0 0 0 0.306441,-0.34984 c 0,0 -0.22243,-3.52274 0.139009,-5.97845 0.278828,-1.89437 1.139151,-3.81538 1.801958,-4.94079 z" />
      </g>
    </pattern>
  </defs>
  <g
     inkscape:label="Layer 1"
     inkscape:groupmode="layer"
     id="layer1">
    <rect
       style="fill:url(#pattern5246);stroke:none;stroke-width:0.264583"
       width="43.071777"
       height="43.071434"
       x="-567.88623"
       y="-213.16039"
       id="rect1558" />
    <path
       id="rect3297"
       style="fill:url(#pattern12940);fill-opacity:1;fill-rule:evenodd;stroke:none;stroke-width:108.933;stroke-linecap:round;stroke-linejoin:round;stroke-dasharray:none;paint-order:markers fill stroke"
       d="M -156.53362,-226.8444 V 516.28051 H 1380.3838 V -226.8444 Z" />
    <rect
       style="fill:#2d3e50;fill-opacity:1;fill-rule:evenodd;stroke:none;stroke-width:2;stroke-linecap:round;stroke-linejoin:round;stroke-dasharray:none;stroke-opacity:1"
       id="rect11463"
       width="458.57651"
       height="185.64821"
       x="380.86026"
       y="16.395803" />
    <g
       id="g11312"
       transform="translate(59.480108,-32.124422)"
       style="font-size:50.8px;line-height:1.25;font-family:Gulim;-inkscape-font-specification:Gulim;stroke-width:0.264583">
      <path
         d="m 341.31907,47.049028 17.74108,64.034222 q 0.83163,3.14163 3.51126,3.23403 2.67964,0 3.78846,-3.23403 l 15.06144,-57.750912 15.15383,57.658502 q 0.83162,3.32644 3.51126,3.32644 2.77204,0 3.60365,-3.32644 l 17.74108,-63.941812 q 0.27721,-1.47842 -0.3696,-2.58723 -0.64681,-0.92403 -1.84803,-1.20122 -1.20122,-0.2772 -2.12523,0.27719 -1.20122,0.64682 -1.47843,2.12524 L 399.9016,101.56589 385.57937,46.217428 q -0.83161,-3.04925 -4.25046,-3.04925 -3.32646,0 -4.15807,3.04925 L 362.84862,101.56589 346.95556,45.385808 q -0.36959,-1.29362 -1.38602,-1.84804 -1.01641,-0.55439 -2.12522,-0.27719 -1.20122,0.18477 -1.84804,1.10882 -0.64682,1.10881 -0.27721,2.67963 z"
         id="path7532"
         style="fill:#ffffff;fill-opacity:1;stroke:#ffffff;stroke-width:4;stroke-dasharray:none;stroke-opacity:1" />
      <path
         d="m 464.49021,98.701438 q -2.21763,4.804882 -5.08208,7.207322 -3.69606,3.23405 -9.24014,3.23405 -7.02251,0 -11.18058,-6.37571 -3.60366,-5.359272 -3.97326,-13.213402 h 36.31377 v -1.47843 q 0,-10.81097 -5.35929,-18.29547 -5.91369,-8.13134 -15.80064,-8.13134 -9.88696,0 -15.70825,8.13134 -5.26688,7.4845 -5.26688,18.29547 0,10.71858 5.26688,18.110692 5.82129,8.13132 15.70825,8.13132 7.02251,0 12.19699,-3.60364 5.08208,-3.41886 7.76172,-9.88695 0.55441,-1.386042 0,-2.587262 -0.46201,-1.01641 -1.57083,-1.38602 -1.20121,-0.46199 -2.31003,-0.0924 -1.20122,0.55441 -1.75563,1.94043 z m -29.29126,-14.32221 q 0.55441,-6.74532 3.97326,-11.64258 4.15807,-6.0061 10.99578,-6.0061 6.8377,0 11.08817,6.09848 3.41885,4.98968 3.97326,11.5502 z"
         id="path7534"
         style="fill:#ffffff;fill-opacity:1;stroke:#ffffff;stroke-width:4;stroke-dasharray:none;stroke-opacity:1" />
      <path
         d="m 485.28054,45.847818 v 65.605022 q 0,1.29362 0.83161,2.12524 0.83162,0.7392 2.03283,0.7392 1.10882,0 1.94044,-0.7392 0.92401,-0.73922 0.92401,-2.03284 V 45.940218 q 0,-1.38602 -0.92401,-2.12524 -0.83162,-0.6468 -1.94044,-0.6468 -1.20121,0 -2.03283,0.6468 -0.83161,0.73922 -0.83161,2.03284 z"
         id="path7536"
         style="fill:#ffffff;fill-opacity:1;stroke:#ffffff;stroke-width:4;stroke-dasharray:none;stroke-opacity:1" />
      <path
         d="m 527.69281,61.648458 q 8.13133,0 13.58301,3.88086 4.52767,3.32645 6.0061,8.22374 0.2772,1.20121 -0.46201,2.12522 -0.64681,0.92402 -1.84803,1.20123 -1.29362,0.27719 -2.31004,-0.18477 -1.20122,-0.55441 -1.47842,-1.84803 -1.38602,-4.34287 -4.71248,-6.37571 -3.32645,-1.94041 -9.14774,-1.94041 -7.85412,0 -12.10459,6.56049 -3.78846,5.72889 -3.78846,14.69183 0,9.14775 3.78846,14.876632 4.15807,6.28331 12.10459,6.28331 6.56051,0 9.97936,-2.03284 3.41885,-2.03282 5.08208,-6.8377 0.3696,-1.293622 1.66322,-1.848042 1.10882,-0.46201 2.31004,-0.18476 1.29362,0.2772 1.84803,1.20121 0.64681,0.924032 0.0924,2.310052 -2.77204,5.82129 -6.74531,8.77813 -5.26688,3.78846 -13.86021,3.78846 -11.18058,0 -17.00187,-7.94652 -5.08208,-6.930122 -5.08208,-18.295492 0,-10.99576 5.26688,-18.29548 6.0061,-8.13133 16.81707,-8.13133 z"
         id="path7538"
         style="fill:#ffffff;fill-opacity:1;stroke:#ffffff;stroke-width:4;stroke-dasharray:none;stroke-opacity:1" />
      <path
         d="m 581.84005,61.833268 q -10.99577,0 -17.18667,8.13132 -5.45168,7.20732 -5.45168,18.20309 0,10.90337 5.45168,18.110692 6.1909,8.22372 17.18667,8.22372 10.90337,0 17.09427,-8.22372 5.54409,-7.207322 5.54409,-18.110692 0,-10.99577 -5.54409,-18.20309 -6.1909,-8.13132 -17.09427,-8.13132 z m 0,5.08207 q 8.13133,0 12.659,6.56051 4.15807,5.82129 4.15807,14.69183 0,8.68573 -4.15807,14.599422 -4.52767,6.56051 -12.659,6.56051 -8.22373,0 -12.8438,-6.56051 -3.97326,-5.821292 -3.97326,-14.599422 0,-8.87054 3.97326,-14.69183 4.62007,-6.56051 12.8438,-6.56051 z"
         id="path7540"
         style="fill:#ffffff;fill-opacity:1;stroke:#ffffff;stroke-width:4;stroke-dasharray:none;stroke-opacity:1" />
      <path
         d="m 618.61583,65.529318 v 45.923522 q 0,1.29362 0.83161,2.12524 0.83162,0.7392 2.03283,0.7392 1.10882,0 1.94043,-0.7392 0.92402,-0.83162 0.92402,-2.12524 V 75.601088 q 3.04925,-4.80488 6.4681,-6.83772 3.41885,-2.03282 8.31613,-2.03282 4.43527,0 7.02251,2.58724 2.31004,2.40243 2.31004,6.3757 v 35.759352 q 0,1.29362 0.83161,2.12524 0.83161,0.7392 2.03283,0.7392 1.10882,0 1.94043,-0.7392 0.92402,-0.83162 0.92402,-2.12524 V 76.432688 q 2.67964,-5.17447 6.00609,-7.39211 3.32645,-2.31003 8.59334,-2.31003 4.62007,0 7.11491,2.58724 2.31003,2.40243 2.31003,6.3757 v 35.759352 q 0,1.29362 0.83162,2.12524 0.83161,0.7392 2.03283,0.7392 1.10882,0 1.94043,-0.7392 0.92401,-0.83162 0.92401,-2.12524 V 74.769468 q 0,-4.98967 -3.78846,-8.77814 -4.34286,-4.34287 -11.55018,-4.34287 -5.26688,0 -9.51735,2.40243 -3.88086,2.12524 -6.2833,5.9137 -1.66322,-3.51125 -4.34286,-5.54409 -3.78846,-2.77204 -9.51735,-2.77204 -4.52767,0 -8.87054,2.40243 -3.51126,1.94044 -5.72889,4.89729 v -3.41886 q 0,-1.57083 -0.92402,-2.40244 -0.83161,-0.8316 -1.94043,-0.8316 -1.20121,0 -2.03283,0.8316 -0.83161,0.83161 -0.83161,2.40244 z"
         id="path7542"
         style="fill:#ffffff;fill-opacity:1;stroke:#ffffff;stroke-width:4;stroke-dasharray:none;stroke-opacity:1" />
      <path
         d="m 733.00881,98.701438 q -2.21763,4.804882 -5.08208,7.207322 -3.69606,3.23405 -9.24014,3.23405 -7.02251,0 -11.18058,-6.37571 -3.60365,-5.359272 -3.97326,-13.213402 h 36.31377 v -1.47843 q 0,-10.81097 -5.35928,-18.29547 -5.9137,-8.13134 -15.80065,-8.13134 -9.88696,0 -15.70825,8.13134 -5.26688,7.4845 -5.26688,18.29547 0,10.71858 5.26688,18.110692 5.82129,8.13132 15.70825,8.13132 7.02251,0 12.19699,-3.60364 5.08208,-3.41886 7.76172,-9.88695 0.55441,-1.386042 0,-2.587262 -0.46201,-1.01641 -1.57082,-1.38602 -1.20122,-0.46199 -2.31004,-0.0924 -1.20122,0.55441 -1.75563,1.94043 z m -29.29126,-14.32221 q 0.55441,-6.74532 3.97327,-11.64258 4.15806,-6.0061 10.99577,-6.0061 6.83771,0 11.08817,6.09848 3.41886,4.98968 3.97326,11.5502 z"
         id="path7544"
         style="fill:#ffffff;fill-opacity:1;stroke:#ffffff;stroke-width:4;stroke-dasharray:none;stroke-opacity:1" />
    </g>
    <g
       id="g11352"
       transform="translate(-131.28811,-466.02048)"
       style="font-size:50.8px;line-height:1.25;font-family:Gulim;-inkscape-font-specification:Gulim;stroke-width:0.264583">
      <path
         d="m 571.47151,601.53801 v 6.89571 h -2.67891 q -1.14101,0 -1.14101,1.33945 0,1.38906 1.14101,1.38906 h 2.67891 v 19.89336 q 0,1.93477 1.19062,3.27422 1.28985,1.53789 3.57188,1.53789 h 2.33164 q 0.69453,0 1.14101,-0.44648 0.39688,-0.39688 0.39688,-0.94258 0,-0.59531 -0.39688,-0.99219 -0.44648,-0.39687 -1.14101,-0.39687 h -1.78594 q -1.0914,0 -1.68672,-0.74415 -0.49609,-0.59531 -0.49609,-1.48828 v -19.69492 h 4.06797 q 1.28984,0 1.28984,-1.38906 0,-1.33945 -1.28984,-1.33945 h -4.06797 v -6.89571 q 0,-0.74414 -0.49609,-1.14101 -0.44649,-0.34727 -1.09141,-0.34727 -0.64492,0 -1.09141,0.34727 -0.44648,0.39687 -0.44648,1.14101 z"
         id="path10502"
         style="fill:#4fb3d9;fill-opacity:1;stroke:#4fb3d9;stroke-width:2;stroke-dasharray:none;stroke-opacity:1" />
      <path
         d="m 597.06995,607.68958 q -5.90352,0 -9.22735,4.36562 -2.92695,3.86953 -2.92695,9.77305 0,5.8539 2.92695,9.72343 3.32383,4.41524 9.22735,4.41524 5.8539,0 9.17773,-4.41524 2.97656,-3.86953 2.97656,-9.72343 0,-5.90352 -2.97656,-9.77305 -3.32383,-4.36562 -9.17773,-4.36562 z m 0,2.72851 q 4.36562,0 6.79648,3.52227 2.23242,3.12539 2.23242,7.88789 0,4.66328 -2.23242,7.83828 -2.43086,3.52226 -6.79648,3.52226 -4.41524,0 -6.89571,-3.52226 -2.1332,-3.12539 -2.1332,-7.83828 0,-4.7625 2.1332,-7.88789 2.48047,-3.52227 6.89571,-3.52227 z"
         id="path10504"
         style="fill:#4fb3d9;fill-opacity:1;stroke:#4fb3d9;stroke-width:2;stroke-dasharray:none;stroke-opacity:1" />
      <path
         d="m 638.89065,598.51184 q -2.28203,0 -3.57188,1.48828 -1.14101,1.33946 -1.14101,3.32383 v 26.93789 q 0,1.93477 1.14101,3.27422 1.28985,1.48828 3.57188,1.48828 h 7.09414 q 8.13593,0 12.74961,-5.45703 4.31601,-5.01055 4.31601,-12.79922 0,-7.78867 -4.31601,-12.79922 -4.61368,-5.45703 -12.74961,-5.45703 z m 0.5457,33.73438 q -1.09141,0 -1.68672,-0.69454 -0.49609,-0.59531 -0.49609,-1.48828 v -26.54101 q 0,-0.94258 0.49609,-1.53789 0.59531,-0.69453 1.68672,-0.69453 h 6.54844 q 6.64765,0 10.41797,4.56406 3.52226,4.2168 3.52226,10.91406 0,6.64766 -3.52226,10.86445 -3.77032,4.61368 -10.41797,4.61368 z"
         id="path10506"
         style="fill:#4fb3d9;fill-opacity:1;stroke:#4fb3d9;stroke-width:2;stroke-dasharray:none;stroke-opacity:1" />
      <path
         d="m 687.21018,628.62473 q -1.14102,2.03399 -3.32383,3.175 -2.43086,1.28985 -5.85391,1.28985 -3.02617,0 -4.46484,-1.28985 -1.38906,-1.19062 -1.38906,-3.62148 0,-2.53008 1.48828,-3.81992 1.53789,-1.38907 5.25859,-1.88516 3.7207,-0.49609 5.85391,-1.14102 1.73633,-0.5457 2.43086,-1.14101 z m -6.79649,-21.03437 q -4.16718,0 -6.69726,1.83554 -2.57969,1.93477 -3.175,5.75469 -0.14883,0.74414 0.29765,1.19063 0.39688,0.44648 0.99219,0.49609 0.64492,0.0496 1.09141,-0.29766 0.5457,-0.34726 0.64492,-0.99218 0.24805,-2.48047 1.73633,-3.77032 1.68672,-1.48828 5.06015,-1.48828 3.47266,0 5.20899,1.28985 1.63711,1.24023 1.63711,3.67109 0,2.1332 -1.48828,2.92695 -1.53789,0.84336 -6.8461,1.5875 -6.00273,0.74414 -8.28476,3.32383 -1.53789,1.78594 -1.53789,5.06016 0,3.62148 2.23242,5.60586 2.28203,2.08359 6.74687,2.08359 3.27422,0 5.85391,-1.14102 1.88516,-0.84335 3.37344,-2.28203 0,1.53789 0.89297,2.18282 1.0914,0.69453 3.91914,0.69453 0.69453,0 1.0914,-0.44649 0.34727,-0.39687 0.34727,-0.94258 -0.0496,-0.59531 -0.39688,-0.99218 -0.39687,-0.39688 -0.99218,-0.39688 -0.89297,0 -1.38907,-0.49609 -0.44648,-0.44649 -0.44648,-1.28985 v -15.72617 q 0,-3.91914 -2.87735,-5.80429 -2.53007,-1.63711 -6.99492,-1.63711 z"
         id="path10508"
         style="fill:#4fb3d9;fill-opacity:1;stroke:#4fb3d9;stroke-width:2;stroke-dasharray:none;stroke-opacity:1" />
      <path
         d="m 700.30705,601.53801 v 6.89571 h -2.67891 q -1.14101,0 -1.14101,1.33945 0,1.38906 1.14101,1.38906 h 2.67891 v 19.89336 q 0,1.93477 1.19062,3.27422 1.28985,1.53789 3.57188,1.53789 h 2.33164 q 0.69453,0 1.14102,-0.44648 0.39687,-0.39688 0.39687,-0.94258 0,-0.59531 -0.39687,-0.99219 -0.44649,-0.39687 -1.14102,-0.39687 h -1.78594 q -1.0914,0 -1.68672,-0.74415 -0.49609,-0.59531 -0.49609,-1.48828 v -19.69492 h 4.06797 q 1.28984,0 1.28984,-1.38906 0,-1.33945 -1.28984,-1.33945 h -4.06797 v -6.89571 q 0,-0.74414 -0.49609,-1.14101 -0.44649,-0.34727 -1.09141,-0.34727 -0.64492,0 -1.09141,0.34727 -0.44648,0.39687 -0.44648,1.14101 z"
         id="path10510"
         style="fill:#4fb3d9;fill-opacity:1;stroke:#4fb3d9;stroke-width:2;stroke-dasharray:none;stroke-opacity:1" />
      <path
         d="m 731.70978,628.62473 q -1.14102,2.03399 -3.32383,3.175 -2.43086,1.28985 -5.8539,1.28985 -3.02618,0 -4.46485,-1.28985 -1.38906,-1.19062 -1.38906,-3.62148 0,-2.53008 1.48828,-3.81992 1.53789,-1.38907 5.2586,-1.88516 3.7207,-0.49609 5.8539,-1.14102 1.73633,-0.5457 2.43086,-1.14101 z m -6.79648,-21.03437 q -4.16719,0 -6.69727,1.83554 -2.57969,1.93477 -3.175,5.75469 -0.14883,0.74414 0.29766,1.19063 0.39687,0.44648 0.99218,0.49609 0.64493,0.0496 1.09141,-0.29766 0.5457,-0.34726 0.64492,-0.99218 0.24805,-2.48047 1.73633,-3.77032 1.68672,-1.48828 5.06016,-1.48828 3.47265,0 5.20898,1.28985 1.63711,1.24023 1.63711,3.67109 0,2.1332 -1.48828,2.92695 -1.53789,0.84336 -6.84609,1.5875 -6.00274,0.74414 -8.28477,3.32383 -1.53789,1.78594 -1.53789,5.06016 0,3.62148 2.23242,5.60586 2.28203,2.08359 6.74688,2.08359 3.27422,0 5.8539,-1.14102 1.88516,-0.84335 3.37344,-2.28203 0,1.53789 0.89297,2.18282 1.0914,0.69453 3.91914,0.69453 0.69453,0 1.09141,-0.44649 0.34726,-0.39687 0.34726,-0.94258 -0.0496,-0.59531 -0.39687,-0.99218 -0.39688,-0.39688 -0.99219,-0.39688 -0.89297,0 -1.38906,-0.49609 -0.44649,-0.44649 -0.44649,-1.28985 v -15.72617 q 0,-3.91914 -2.87734,-5.80429 -2.53008,-1.63711 -6.99492,-1.63711 z"
         id="path10512"
         style="fill:#4fb3d9;fill-opacity:1;stroke:#4fb3d9;stroke-width:2;stroke-dasharray:none;stroke-opacity:1" />
      <path
         d="m 758.49884,598.51184 h -9.87227 q -2.28203,0 -3.57187,1.48828 -1.14102,1.33946 -1.14102,3.32383 v 30.95625 q 0,0.74414 0.44649,1.19063 0.44648,0.39687 1.0914,0.39687 0.59532,0 1.0418,-0.39687 0.4961,-0.44649 0.4961,-1.19063 v -15.27969 h 11.50937 q 4.81211,0 7.63984,-3.22461 2.57969,-2.87734 2.57969,-6.99492 0,-4.21679 -2.57969,-7.09414 -2.82773,-3.175 -7.63984,-3.175 z m -0.39687,17.76016 h -11.1125 v -12.74961 q 0,-0.94258 0.49609,-1.53789 0.59531,-0.69453 1.68672,-0.69453 h 8.92969 q 3.52226,0 5.60585,2.33164 1.88516,2.1332 1.88516,5.20898 0,2.97656 -1.88516,5.10977 -2.08359,2.33164 -5.60585,2.33164 z"
         id="path10514"
         style="fill:#4fb3d9;fill-opacity:1;stroke:#4fb3d9;stroke-width:2;stroke-dasharray:none;stroke-opacity:1" />
      <path
         d="m 776.25901,599.30559 v 30.95625 q 0,1.93477 1.14101,3.27422 1.28985,1.48828 3.57188,1.48828 h 15.82539 q 0.74414,0 1.19062,-0.44648 0.39688,-0.39688 0.39688,-0.94258 0,-0.59531 -0.39688,-0.99219 -0.44648,-0.39687 -1.19062,-0.39687 H 781.5176 q -1.09141,0 -1.68672,-0.69454 -0.49609,-0.59531 -0.49609,-1.48828 v -30.75781 q 0,-0.79375 -0.4961,-1.24023 -0.44648,-0.39688 -1.04179,-0.39688 -0.64493,0 -1.09141,0.39688 -0.44648,0.44648 -0.44648,1.24023 z"
         id="path10516"
         style="fill:#4fb3d9;fill-opacity:1;stroke:#4fb3d9;stroke-width:2;stroke-dasharray:none;stroke-opacity:1" />
      <path
         d="m 808.5051,620.33997 6.8957,-18.85157 h 0.14883 l 6.84609,18.85157 z m 4.11757,-20.33985 -12.25351,33.63516 q -0.34727,0.79375 -0.0496,1.38906 0.29766,0.59531 0.89297,0.79375 0.59531,0.19844 1.14101,-0.0992 0.64493,-0.34726 0.94258,-1.0914 l 4.2168,-11.55899 h 15.92461 l 4.16719,11.55899 q 0.29765,0.74414 0.89296,1.0914 0.59532,0.24805 1.19063,0.0496 0.59531,-0.19844 0.84336,-0.74414 0.29765,-0.64492 0.0496,-1.38906 l -12.30313,-33.63516 q -0.39687,-1.14101 -1.19062,-1.73633 -0.74414,-0.5457 -1.5875,-0.5457 -0.94258,0 -1.68672,0.5457 -0.79375,0.59532 -1.19063,1.73633 z"
         id="path10518"
         style="fill:#4fb3d9;fill-opacity:1;stroke:#4fb3d9;stroke-width:2;stroke-dasharray:none;stroke-opacity:1" />
      <path
         d="m 836.63362,599.65286 v 34.47851 q 0,0.79375 0.44649,1.28985 0.44648,0.44648 1.0914,0.49609 0.64493,0 1.09141,-0.44648 0.49609,-0.4961 0.49609,-1.33946 v -30.80742 l 16.81758,27.73164 2.77813,4.06797 q 0.59531,1.0418 1.93476,0.64492 1.33946,-0.34726 1.33946,-2.03398 v -34.72656 q 0,-0.64493 -0.4961,-0.99219 -0.44648,-0.34727 -1.0914,-0.34727 -0.64493,0 -1.09141,0.29766 -0.44648,0.39687 -0.44648,1.0418 v 31.15468 l -17.41289,-28.97187 -1.68672,-2.48047 q -0.79375,-1.24024 -2.28203,-1.0418 -1.48829,0.24805 -1.48829,1.98438 z"
         id="path10520"
         style="fill:#4fb3d9;fill-opacity:1;stroke:#4fb3d9;stroke-width:2;stroke-dasharray:none;stroke-opacity:1" />
      <path
         d="m 893.28751,598.51184 h -23.66367 q -1.19062,0 -1.19062,1.38906 0,1.38907 1.19062,1.38907 h 10.51719 v 33.03984 q 0,0.69453 0.44648,1.14102 0.44649,0.39687 1.09141,0.39687 0.59531,0 1.0418,-0.39687 0.49609,-0.44649 0.49609,-1.14102 v -33.03984 h 10.0707 q 0.74414,0 1.19063,-0.44649 0.44648,-0.39687 0.44648,-0.94258 0,-0.59531 -0.44648,-0.99218 -0.44649,-0.39688 -1.19063,-0.39688 z"
         id="path10522"
         style="fill:#4fb3d9;fill-opacity:1;stroke:#4fb3d9;stroke-width:2;stroke-dasharray:none;stroke-opacity:1" />
    </g>
  </g>
</svg>
