<?xml version="1.0" encoding="UTF-8" standalone="no"?>
<!-- Generator: Adobe Illustrator 19.1.0, SVG Export Plug-In . SVG Version: 6.00 Build 0)  -->

<svg
   version="1.1"
   id="Layer_1"
   x="0px"
   y="0px"
   viewBox="0 0 255.06604 233.49379"
   xml:space="preserve"
   sodipodi:docname="Life Sciences.svg"
   width="255.06604"
   height="233.49379"
   inkscape:version="1.2.1 (9c6d41e410, 2022-07-14, custom)"
   xmlns:inkscape="http://www.inkscape.org/namespaces/inkscape"
   xmlns:sodipodi="http://sodipodi.sourceforge.net/DTD/sodipodi-0.dtd"
   xmlns="http://www.w3.org/2000/svg"
   xmlns:svg="http://www.w3.org/2000/svg"><defs
   id="defs286" /><sodipodi:namedview
   id="namedview284"
   pagecolor="#ffffff"
   bordercolor="#666666"
   borderopacity="1.0"
   inkscape:showpageshadow="2"
   inkscape:pageopacity="0.0"
   inkscape:pagecheckerboard="0"
   inkscape:deskcolor="#d1d1d1"
   showgrid="false"
   inkscape:zoom="2.8367135"
   inkscape:cx="107.87131"
   inkscape:cy="138.71686"
   inkscape:window-width="1672"
   inkscape:window-height="1244"
   inkscape:window-x="422"
   inkscape:window-y="83"
   inkscape:window-maximized="0"
   inkscape:current-layer="g2650" />
<style
   type="text/css"
   id="style271">
	.st0{fill:#A6CE39;}
	.st1{fill:#FFFFFF;}
</style>


<g
   id="g2650"
   transform="translate(1.87798,-12.214124)"><path
     d="m 173.51912,148.12295 -0.87954,0.30363 v -0.90314 -0.90315 l 22.82504,-21.60511 22.82514,-21.6051 -0.60164,-1.47829 -0.60164,-1.47828 -0.91479,-2.527801 -0.9148,-2.5278 0.5887,-3.1384 0.58879,-3.1384 2.34944,-2.792166 2.34953,-2.79217 2.57888,-1.33361 2.57889,-1.3336 3.00564,0.002 3.00554,0.002 3.16996,1.59262 3.16996,1.59263 2.0676,3.095066 2.06761,3.09507 v 4.19198 4.19198 l -1.81001,2.968691 -1.81001,2.96869 -2.96865,1.81004 -2.96875,1.81003 -3.38492,0.004 -3.38484,0.004 -3.15174,-1.50295 -3.15174,-1.50295 -4.01061,3.55243 -4.01061,3.55244 -18.86007,17.76217 -18.85998,17.76219 -0.87954,0.30362 z m -88.901827,-1.63878 -0.980746,0.98077 -22.266219,-22.91988 -22.266128,-22.91988 -3.112754,1.89297 -3.112755,1.89298 -3.939197,0.59071 -3.939106,0.59071 -4.002867,-1.5287 -4.002777,-1.52871 -3.197011,-3.538671 -3.197011,-3.53868 -1.0340322,-3.84019 -1.0340324,-3.84019 0.6076489,-3.239276 0.60774,-3.2393 1.2417137,-2.40118 1.241713,-2.40118 3.222607,-2.829539 3.222698,-2.829525 3.764945,-1.013799 3.764945,-1.013802 4.543658,1.090016 4.543749,1.090012 3.1358,2.753312 3.135891,2.753325 1.464606,2.82514 1.464606,2.82515 0.07105,5.023986 0.07105,5.02399 -2.100401,3.55996 -2.100401,3.559971 22.580746,22.59435 22.580838,22.59438 -0.980746,0.98077 z M 104.3161,133.70066 h -0.91826 l -1.38335,-3.4158 -1.38336,-3.41581 -8.862508,-21.29509 -8.86251,-21.295107 -3.151923,-0.24795 -3.152013,-0.24795 -2.535165,-2.83739 -2.535256,-2.83738 v -2.64839 -2.648388 l 2.301888,-2.735565 2.301797,-2.735567 2.641556,-0.580177 2.641464,-0.580177 2.870916,1.484591 2.870915,1.484591 1.288533,3.084013 1.288624,3.084026 -0.968267,2.546823 -0.968358,2.54682 -1.399205,1.54609 -1.399113,1.54608 10.122714,24.415697 10.122711,24.41569 -0.009,0.68316 -0.009,0.68316 h -0.91827 z m 47.50346,-0.0155 -1.23606,0.0155 0.44378,-1.1386 0.44369,-1.1386 9.30392,-22.05532 9.30393,-22.055331 -1.90775,-2.679076 -1.90766,-2.67907 v -3.15236 -3.152346 l 1.83287,-2.330107 1.83288,-2.330104 2.78174,-0.610965 2.78165,-0.610973 2.71543,1.124774 2.71542,1.124772 1.32342,2.559102 1.32333,2.559117 v 2.30806 2.30807 l -2.53516,2.83739 -2.53526,2.837376 -3.14208,0.24719 -3.14218,0.24718 -9.57992,22.874441 -9.57992,22.87442 -1.23607,0.0155 z m -23.82327,-4.53892 h -0.90078 V 91.870769 54.595286 l -3.03778,-1.002571 -3.03788,-1.002579 -2.3161,-2.483873 -2.31619,-2.483864 -1.02219,-1.989602 -1.02219,-1.989601 v -3.568705 -3.568706 l 2.05258,-3.045813 2.05258,-3.045823 3.0264,-1.767502 3.0264,-1.767501 h 3.50526 3.50534 l 2.93422,1.71825 2.93432,1.718259 1.78942,2.400864 1.78934,2.400874 0.4568,4.052073 0.45672,4.052074 -1.38126,2.655865 -1.38117,2.655875 -2.24478,2.096421 -2.24468,2.09642 -2.62398,0.70157 -2.62397,0.701579 -0.23783,37.508499 -0.23783,37.508491 z"
     style="fill:#1fb9ee;stroke-width:0.910881"
     id="path723" /><g
     id="g2643"
     transform="translate(-1.2940332)"><path
       d="M 105.67132,232.99545 H 88.981354 v -34.24322 -34.24322 h 3.740856 3.74085 v 31.07788 31.07788 h 12.94912 12.94912 v 3.16534 3.16534 z"
       style="fill:#464641;stroke-width:0.575516"
       id="path959" /><path
       d="m 144.069,232.94807 -1.15084,-0.0467 -3.07382,-0.66232 -3.07383,-0.66232 -3.05261,-1.71305 -3.05262,-1.71306 -2.08269,-2.72973 -2.08269,-2.72973 -0.85988,-2.50627 -0.8599,-2.50627 -0.33922,-3.20246 -0.33922,-3.20246 h 3.34929 3.34928 l 0.38181,2.87823 0.38181,2.87822 0.83338,1.99508 0.8334,1.99508 1.50206,1.60184 1.50207,1.60184 2.22779,1.03144 2.2278,1.03144 4.05577,0.0122 4.05576,0.0123 2.07068,-0.86496 2.07067,-0.86497 1.60184,-1.50207 1.60184,-1.50207 1.03144,-2.2278 1.03143,-2.22779 0.0122,-2.53616 0.0123,-2.53619 -1.41082,-2.83114 -1.41082,-2.83112 -2.11672,-1.4669 -2.1167,-1.46688 -7.56197,-3.01345 -7.56196,-3.01345 -2.14115,-1.35164 -2.14114,-1.35165 -2.05404,-2.27357 -2.05402,-2.27356 -0.86685,-2.91901 -0.86687,-2.91903 v -2.58256 -2.58258 l 0.88494,-2.9799 0.88494,-2.97989 3.15704,-3.15706 3.15706,-3.15705 3.21924,-1.20448 3.21924,-1.20447 4.29546,0.003 4.29547,0.003 1.96855,0.54689 1.96854,0.54688 2.6314,1.66879 2.6314,1.66879 1.80498,2.55517 1.80497,2.55516 0.7038,2.01566 0.70381,2.01567 0.34753,2.95699 0.34753,2.95701 h -3.38424 -3.38425 l -0.38691,-2.64551 -0.38691,-2.64551 -1.11444,-2.39577 -1.11443,-2.39578 -1.74737,-1.33278 -1.74738,-1.33279 -2.75192,-0.61673 -2.75192,-0.61671 -2.24849,0.37414 -2.24848,0.37414 -2.01851,1.02274 -2.01849,1.02273 -1.44779,1.7206 -1.44778,1.7206 -0.61694,2.29115 -0.61695,2.29115 0.37133,1.99987 0.37134,1.99988 1.09606,1.95889 1.09606,1.95888 1.93124,1.3233 1.93121,1.3233 6.53257,2.45875 6.53258,2.45875 2.43643,1.42431 2.43644,1.42433 2.24537,2.02441 2.24537,2.02441 1.58343,3.34169 1.58343,3.3417 -0.005,4.17711 -0.005,4.17713 -1.4197,3.06321 -1.4197,3.06323 -2.05579,2.13737 -2.0558,2.13736 -3.08917,1.57288 -3.08916,1.57286 -3.27881,0.60613 -3.27879,0.60611 -1.15084,-0.0467 z"
       style="fill:#1fb9ee;stroke-width:0.556949"
       id="path992" /></g><rect
     style="fill:none;stroke:#1fb9ee;stroke-width:3.92675;stroke-linecap:round;stroke-linejoin:round;stroke-dasharray:none;stroke-opacity:1"
     id="rect1130"
     width="251.1393"
     height="229.56705"
     x="0.085395008"
     y="14.177499"
     ry="19.10984" /></g></svg>
